<svg id="Layer_1" data-name="Layer 1" xmlns="http://www.w3.org/2000/svg" width="73.1413" height="158.606" viewBox="0 0 73.1413 158.606"><defs><style>.cls-1{fill:#e5e5e5;}.cls-2{fill:#b2b2b2;}</style></defs><title>awards_decoration</title><path class="cls-1" d="M71.2,158.4336c-3.3682-1.9307-6.6973-3.98-9.9-6.0938-1.0967,1.1651-3.3457,1.8243-6.293,1.8243a24.8035,24.8035,0,0,1-5.6289-.6983c-6.1533-1.4609-9.9843-7.124-10.1445-7.3642l-.2979-.4473.4668-.2647a20.4811,20.4811,0,0,1,9.1436-2.3769h.02c-1.5889-1.3-3.1484-2.6357-4.6533-3.9854a6.66,6.66,0,0,1-3.8027.9248,21.7117,21.7117,0,0,1-8.0391-1.832c-5.834-2.4385-8.6948-8.6494-8.8135-8.9121l-.2212-.4892.5039-.1856a20.9636,20.9636,0,0,1,6.62-1.082,17.2741,17.2741,0,0,1,2.6373.1972c-1.3936-1.6464-2.7266-3.3242-3.9756-5.0048a5.9118,5.9118,0,0,1-2.2774.3906,19.637,19.637,0,0,1-9.0469-2.8682c-5.499-3.126-7.5883-9.6357-7.6743-9.9111l-.16-.5117.5215-.1241a20.1029,20.1029,0,0,1,4.2607-.4257,17.3537,17.3537,0,0,1,6.6831,1.2226c-1.1084-2.1289-2.1309-4.3135-3.05-6.5185a3.6837,3.6837,0,0,1-1.3389.23c-2.6025,0-6.4184-2.1221-9.7216-5.4063-4.4854-4.459-4.7945-11.29-4.8052-11.5791l-.0205-.5352.5356.0166c.28.0088,6.6953.26,11.1748,4.3262-.1313-.5566-.2485-1.0791-.3554-1.5869-.4336-2.0557-.794-4.1943-1.0723-6.3662-.0879.0068-.1768.0107-.2671.0107-2.6328,0-6.3252-3.0088-9.1895-7.4868C-.39,70.19.7959,63.4565.8481,63.1724l.0967-.5274.5191.1333c.28.0718,6.89,1.8184,10.2983,7.1489.021.0337.0425.0669.064.1006a92.8842,92.8842,0,0,1,.8427-10.247c-2.5815-.3907-5.7045-4.1978-7.5878-9.3394-2.1758-5.94.437-12.2578.5493-12.5239l.208-.4942.4785.2422c.2573.1309,6.333,3.2642,8.51,9.2061q.1435.3918.2768.7964c.8682-3.2959,1.9077-6.6143,3.0991-9.8911-2.5088-.8667-4.5468-5.439-4.9292-11.2173-.4155-6.312,3.8682-11.6392,4.0508-11.8628l.3389-.4155.3906.3671c.2036.191,4.8379,4.607,5.5205,10.605.7354-1.48,1.4961-2.9385,2.273-4.354-1.7144-2.0508-.7227-7.1362,2.4409-12.1592,3.37-5.3535,9.9658-7.15,10.2451-7.2236l.5186-.1372.1.5269c.0538.2836,1.2891,7.0087-2.081,12.3623-2.8452,4.519-6.5264,7.5551-9.1607,7.5551h0a3.1351,3.1351,0,0,1-.4161-.0273c-.8686,1.583-1.7158,3.2158-2.5293,4.8769l.0269-.0185a17.5437,17.5437,0,0,1,9.7144-2.6421,18.1539,18.1539,0,0,1,2.5732.1616l.5293.0835-.12.5225c-.0645.2817-1.6441,6.9326-6.8867,10.4746-3.3213,2.2436-6.8467,3.583-9.43,3.583a5.5555,5.5555,0,0,1-1.4927-.1851c-.8818,2.441-1.6792,4.9082-2.38,7.3623a19.7463,19.7463,0,0,1,9.9463-4.6172l.5318-.0688.0317.5352c.0171.2885.3721,7.1157-3.6616,11.9882-3.19,3.854-6.9522,6.3448-9.584,6.3448-.0874,0-.1738-.003-.2583-.0088-.4116,3.0288-.6719,6.06-.7778,9.0454,3.0356-5.1143,8.9116-7.2861,9.1713-7.38l.5039-.1821.147.5156c.0791.2778,1.9024,6.8667-.9814,12.4976-2.35,4.5844-5.6353,7.8794-8.2,8.3042.269,2.0507.6113,4.0634,1.0185,5.9921.1426.6768.3,1.3721.4766,2.0977l.0093-.0361c1.5908-6.1211,7.333-9.8311,7.5771-9.9864l.4522-.2876.2553.4712c.1377.2539,3.3506,6.2891,1.76,12.4121-1.2661,4.8721-3.625,8.6915-5.9917,9.794a83.3385,83.3385,0,0,0,4.1621,8.4814c-.0347-.5039-.0552-1.0029-.06-1.4922-.0713-6.3251,4.4965-11.41,4.6909-11.624l.3613-.3965.37.3877c.1992.209,4.8833,5.1885,4.9551,11.5137.063,5.582-1.5625,10.2627-3.8755,11.4727,1.707,2.2793,3.5669,4.5468,5.5361,6.7519l.01.0039c.52.2178,1.0444.458,1.5654.7178-.1045-.5332-.1924-1.0645-.2622-1.5889-.8325-6.27,3.0874-11.87,3.2554-12.1054l.31-.4366.4141.34c.2236.1836,5.4756,4.5615,6.3086,10.8349.6982,5.2393-.207,9.917-2.167,11.6211,2.1094,1.878,4.3379,3.7354,6.6348,5.5313.4375.11.872.2314,1.3007.3623-.19-.5108-.3632-1.0215-.5166-1.5264-1.8418-6.0517,1.1182-12.2138,1.2452-12.4736l.2353-.4815.4649.2686c.25.1445,6.1425,3.6133,7.9843,9.667,1.5254,5.0166,1.4327,9.668-.167,11.7256,3.0674,2.0136,6.2452,3.9648,9.4532,5.8037l.4336.248-.9336,1.63Z" transform="translate(-0.1092 -0.759)"/><path class="cls-2" d="M38.6608,2s1.2912,6.7541-2.0129,12.002c-2.7761,4.4093-6.3625,7.3216-8.7374,7.3216a2.4737,2.4737,0,0,1-.6772-.09c-1.1154,2.0165-2.339,4.375-3.5854,7.0284.5143-.4073,1.0534-.8076,1.6238-1.1931a17.1361,17.1361,0,0,1,9.434-2.5563,17.7019,17.7019,0,0,1,2.496.1558s-1.54,6.7-6.68,10.1722c-3.3431,2.2582-6.766,3.4971-9.1507,3.4971a4.4751,4.4751,0,0,1-1.7933-.3215c-1.13,3.0847-2.1925,6.3919-3.1168,9.8862.093-.1162.1808-.233.2766-.3487,3.953-4.7766,10.772-5.66,10.772-5.66s.4064,6.8629-3.5481,11.64c-3.1345,3.7869-6.8144,6.1632-9.1989,6.1632a2.9981,2.9981,0,0,1-.6841-.0745A90.6938,90.6938,0,0,0,13.177,71.435c.187-.4168.3833-.8351.5983-1.2548,2.8282-5.5189,9.2931-7.856,9.2931-7.856s1.8816,6.6128-.9455,12.1329c-2.4587,4.7962-5.9239,8.08-8.3018,8.08h-.0156c.2705,2.1653.6273,4.349,1.0913,6.5487.2958,1.402.6373,2.7908,1.0071,4.1716.12-.6832.2687-1.38.4523-2.0874,1.5592-6.0015,7.3609-9.691,7.3609-9.691s3.2749,6.0451,1.7161,12.0482c-1.322,5.0856-3.8895,8.9656-6.1678,9.6378a83.4822,83.4822,0,0,0,4.5479,9.296q.4522.2961.8783.6012a26.2672,26.2672,0,0,1-.1646-2.6322c-.07-6.2005,4.56-11.2812,4.56-11.2812s4.7465,4.9725,4.817,11.1745c.0662,5.8862-1.7725,10.73-4.1742,11.23q2.79,3.78,6.0449,7.4146c.0355.0145.0716.0242.107.039a26.2017,26.2017,0,0,1,2.4734,1.1929,26.3092,26.3092,0,0,1-.4809-2.5914c-.8165-6.1473,3.1669-11.75,3.1669-11.75s5.3126,4.3642,6.13,10.5138c.7406,5.5632-.356,10.391-2.4742,11.5084q3.4241,3.0789,7.2137,6.0381c.83.2055,1.6253.445,2.3821.7107a26.2693,26.2693,0,0,1-.8954-2.48c-1.8049-5.9325,1.2159-12.1079,1.2159-12.1079s5.951,3.4447,7.7566,9.38c1.6014,5.2631,1.348,10.1168-.4587,11.6716q4.7632,3.15,9.9747,6.1462L71.4493,158q-5.3718-3.08-10.2536-6.3288c-.852,1.2829-3.1823,1.9925-6.1882,1.9925a24.1913,24.1913,0,0,1-5.514-.6843c-6.0329-1.4323-9.8441-7.1555-9.8441-7.1555a20.1727,20.1727,0,0,1,8.8959-2.3113,14.2626,14.2626,0,0,1,1.535.0814q-3.212-2.5665-6.1507-5.2235a5.5878,5.5878,0,0,1-3.8183,1.0813,21.2388,21.2388,0,0,1-7.847-1.793c-5.7195-2.3905-8.551-8.6568-8.551-8.6568a20.6707,20.6707,0,0,1,6.448-1.0507,15.8992,15.8992,0,0,1,3.9669.4789q-2.7462-3.1551-5.1515-6.4183a4.9221,4.9221,0,0,1-2.4312.5224,19.2321,19.2321,0,0,1-8.8006-2.8029c-5.3911-3.0649-7.4443-9.6261-7.4443-9.6261a19.7825,19.7825,0,0,1,4.144-.4116,16.2095,16.2095,0,0,1,7.8452,1.8388,83.8921,83.8921,0,0,1-3.9358-8.2788q-.039-.0045-.0775-.01a2.8654,2.8654,0,0,1-1.5359.3831c-2.3952,0-6.0646-1.9752-9.3693-5.26C2.9736,93.9947,2.7131,87.1226,2.7131,87.1226s6.8715.2187,11.2693,4.591q.436.4334.84.8747c-.282-1.1039-.5495-2.2119-.7851-3.3292-.4851-2.3-.8548-4.5837-1.1307-6.8465a2.4874,2.4874,0,0,1-.6977.0944c-2.3761,0-5.9691-2.88-8.768-7.2565C.0985,70.0258,1.34,63.2627,1.34,63.2627s6.6592,1.708,10.001,6.9342c.3474.5431.6623,1.0871.957,1.6287A91.4768,91.4768,0,0,1,13.24,59.31c-.0468.003-.0938.0044-.1413.0044-2.3974,0-5.6157-3.7677-7.5486-9.0445-2.133-5.8236.54-12.1576.54-12.1576s6.1322,3.1066,8.2665,8.9316a26.3223,26.3223,0,0,1,.7794,2.5219,112.4786,112.4786,0,0,1,3.6945-12.0509c-.0364-.0372-.0687-.0778-.1019-.1175-2.4053-.3984-4.5719-5.0544-4.9568-10.87-.4079-6.1882,3.9391-11.514,3.9391-11.514s5.0118,4.7078,5.42,10.896c.0288.4362.0441.8655.0517,1.29,1.14-2.39,2.2555-4.5281,3.2807-6.3827-1.8747-1.62-.928-6.7678,2.2473-11.8091C32.0149,3.7582,38.6608,2,38.6608,2M39.4417.759l-1.0367.2743c-.2869.0759-7.0665,1.9224-10.54,7.4409-2.77,4.3975-4.4079,9.85-2.6131,12.4719q-.7319,1.3428-1.44,2.7258a20.4761,20.4761,0,0,0-5.4155-9.3882l-.7814-.734-.6779.8306c-.1877.23-4.5911,5.7057-4.1622,12.2121.3228,4.8788,2.0479,10.043,4.7977,11.4574-.95,2.6452-1.8006,5.3153-2.5426,7.9783-2.4338-5.689-8.2322-8.6792-8.4871-8.8083l-.9563-.4845L5.17,37.723c-.1154.2734-2.8009,6.7672-.5582,12.89,1.86,5.0771,4.8242,8.7931,7.5005,9.5561-.3716,2.7976-.6174,5.5951-.7348,8.3587A20.1314,20.1314,0,0,0,1.5883,62.294L.55,62.0277.3563,63.0822c-.0536.2919-1.2721,7.2138,2.2418,12.7071,2.8924,4.5227,6.6584,7.5914,9.4394,7.7139.2714,2.0313.614,4.0326,1.021,5.9623l.0384.1808a20.4358,20.4358,0,0,0-10.352-3.5232L1.6732,86.089l.0406,1.0715c.0113.2967.3287,7.3185,4.9525,11.915,3.4446,3.424,7.3048,5.5509,10.0743,5.5509a4.5135,4.5135,0,0,0,1.053-.1175c.7132,1.6851,1.4863,3.3581,2.3113,5.0021a18.6763,18.6763,0,0,0-5.66-.8173,20.6844,20.6844,0,0,0-4.3753.4387l-1.0434.248.32,1.0236c.0887.2832,2.2361,6.9742,7.9045,10.1967a20.1458,20.1458,0,0,0,9.2948,2.9336,6.868,6.868,0,0,0,2.0991-.2928c.9454,1.2613,1.9372,2.52,2.9659,3.7659q-.712-.056-1.4491-.0561a21.5518,21.5518,0,0,0-6.7938,1.1124l-1.008.3712.4424.9789c.1222.27,3.0629,6.6542,9.0766,9.1677a22.2243,22.2243,0,0,0,8.2327,1.87,7.6756,7.6756,0,0,0,3.7485-.8q1.6554,1.4759,3.378,2.9128a21.3716,21.3716,0,0,0-8.0816,2.39l-.9346.53.5955.8942c.1645.2471,4.1024,6.0682,10.4454,7.5741a25.342,25.342,0,0,0,5.745.7114c2.88,0,5.0838-.5924,6.351-1.6868,3.11,2.0422,6.3333,4.0216,9.5934,5.8906l.8676.4975.4974-.8677.4364-.7614.4972-.8675-.8675-.4973c-3.0541-1.751-6.08-3.6029-9.0081-5.5136,1.3988-2.3676,1.42-6.9013-.0485-11.7278-1.8985-6.24-7.9554-9.8051-8.2124-9.9539l-.928-.5371-.4712.9632c-.13.2666-3.172,6.6008-1.2743,12.8383q.096.3157.2018.634-.141-.0378-.2825-.074c-2.1168-1.6574-4.174-3.3669-6.1309-5.0943,1.8267-2.0645,2.6143-6.5513,1.9334-11.6661-.859-6.4657-6.2568-10.9661-6.4861-11.1545l-.8285-.6806-.6213.8738c-.1719.2419-4.2016,5.9977-3.3432,12.461q.0434.3252.0956.6541-.3087-.14-.6167-.27c-1.8063-2.0271-3.518-4.1055-5.101-6.1935,2.4632-1.7873,3.6966-6.862,3.6432-11.6184-.0742-6.5212-4.8887-11.6391-5.0937-11.8538l-.74-.7755-.7222.7924c-.194.2129-4.6237,5.1451-4.8156,11.3968-1.082-2.039-2.0762-4.1151-2.9695-6.2017,2.3519-1.4043,4.6121-5.1758,5.8379-9.8915,1.639-6.3121-1.6632-12.5152-1.8046-12.7761l-.5109-.9431-.905.5756a20.3282,20.3282,0,0,0-7.2318,8.5876q-.0374-.1725-.0734-.3434c-.375-1.7776-.6943-3.6248-.9516-5.504,2.6661-.7391,5.7784-3.954,8.0891-8.4615,2.9726-5.8044,1.0986-12.5773,1.0174-12.8628l-.2934-1.0313-1.0084.3645a20.6652,20.6652,0,0,0-8.4221,6.1156c.125-2.2552.3375-4.5309.6358-6.8058,2.7624-.1066,6.579-2.6426,9.79-6.5221,4.1579-5.0227,3.7936-12.04,3.776-12.3366l-.0634-1.07-1.0633.1378A20.93,20.93,0,0,0,18.4443,44.57c.537-1.78,1.1237-3.5619,1.7553-5.3319a6.5421,6.5421,0,0,0,1.1718.1c2.68,0,6.31-1.3714,9.7105-3.6685,5.4041-3.6512,7.0279-10.4876,7.0944-10.7768l.24-1.0449-1.059-.167a18.64,18.64,0,0,0-2.6517-.1679,19.02,19.02,0,0,0-8.5391,1.8705q.7887-1.5546,1.6105-3.0622.0663.0024.1334.0023c2.7992,0,6.6505-3.13,9.5836-7.7887,3.4741-5.5179,2.2046-12.431,2.1489-12.7226L39.4417.759Z" transform="translate(-0.1092 -0.759)"/></svg>